<svg xmlns="http://www.w3.org/2000/svg" viewBox="0 0 93.26 93.38"><defs><style>.cls-1,.cls-3,.cls-4,.cls-5{fill:#fff;}.cls-1,.cls-2,.cls-5,.cls-6,.cls-7{stroke:#50bce0;}.cls-1,.cls-2,.cls-3,.cls-4,.cls-5,.cls-6,.cls-7{stroke-linecap:round;}.cls-1,.cls-2{stroke-linejoin:round;}.cls-1,.cls-4{stroke-width:2.62px;}.cls-2,.cls-6,.cls-7{fill:none;}.cls-2{stroke-width:2.45px;}.cls-3,.cls-4{stroke:#263474;}.cls-3,.cls-4,.cls-5,.cls-6,.cls-7{stroke-miterlimit:10;}.cls-3{stroke-width:3px;}.cls-5,.cls-7{stroke-width:2px;}</style></defs><g id="Layer_2" data-name="Layer 2"><g id="Layer_1-2" data-name="Layer 1"><path class="cls-1" d="M76.27,1.31a15.66,15.66,0,0,0-13.06,24.3l0,0-3.56,8.25,8.12-3.73,0,0A15.66,15.66,0,1,0,76.27,1.31Z"/><path class="cls-2" d="M76,17a3.14,3.14,0,1,1,3.14-3.14"/><path class="cls-2" d="M76,17a3.14,3.14,0,1,1-3.14,3.14"/><line class="cls-2" x1="76.04" y1="8.35" x2="76.04" y2="10.74"/><line class="cls-2" x1="76.04" y1="25.99" x2="76.04" y2="23.29"/><path class="cls-3" d="M70.31,64.18V58.76A15.51,15.51,0,0,0,54.8,43.25H32.07A15.51,15.51,0,0,0,16.56,58.76v5.42"/><polyline class="cls-4" points="53.8 64.18 63.93 64.18 63.93 64.18"/><path class="cls-4" d="M30.36,50.8A10.28,10.28,0,0,0,23,60.67v3.51H35.59"/><path class="cls-4" d="M63.93,64.18V60.67a10.28,10.28,0,0,0-5.49-9.09"/><path class="cls-3" d="M16.56,64.18H6.8a5.3,5.3,0,0,0-5.3,5.3v16.4H11.82"/><path class="cls-3" d="M75.39,85.88H91.76V69.48a5.3,5.3,0,0,0-5.3-5.3H70.31"/><line class="cls-3" x1="28.74" y1="85.88" x2="57.95" y2="85.88"/><circle class="cls-3" cx="20.28" cy="82.91" r="8.98"/><circle class="cls-3" cx="66.92" cy="82.91" r="8.98"/><path class="cls-5" d="M41.78,53.09a9.27,9.27,0,1,1,4.85.58"/><path class="cls-5" d="M41.78,53.09V71.31a.68.68,0,0,0,1.06.58l5.42-3.51a.76.76,0,0,0,.19-1.1l-1.63-2.15,2-2.92a.76.76,0,0,0-.11-1l-2-2V53.67"/><line class="cls-6" x1="44.33" y1="67.49" x2="44.33" y2="60.53"/><circle class="cls-7" cx="45.26" cy="44.49" r="2.92"/><rect class="cls-3" x="2.05" y="2.2" width="9.62" height="33.32" rx="1.89"/><path class="cls-3" d="M11.67,6.5H34.56L51.24,17.39v6.43a2.94,2.94,0,0,1-2.93,2.94h0a2.94,2.94,0,0,1-2.94-2.94V22.16L27.71,19.71a2,2,0,0,0-2.31,2v2.1a1.25,1.25,0,0,0,1.25,1.25h9.91a3.28,3.28,0,0,1,3.28,3.28h0a3.28,3.28,0,0,1-3.28,3.28H11.67Z"/></g></g></svg>