<svg xmlns="http://www.w3.org/2000/svg" viewBox="0 0 20 18"><defs><style>.cls-1{fill:none;stroke:#fff;stroke-width:1.5px;}</style></defs><g id="Layer_2" data-name="Layer 2"><g id="Layer_1-2" data-name="Layer 1"><path class="cls-1" d="M18.64,3v0h0a4.32,4.32,0,0,1,.45,1.09h0a4.28,4.28,0,0,1,.15,1.23h0a4.39,4.39,0,0,1-.6,2.23h0a4.18,4.18,0,0,1-.72.95h0L10,16.91,2.1,8.63h0a4.66,4.66,0,0,1-.75-1A4.77,4.77,0,0,1,.9,6.55,4.43,4.43,0,0,1,.75,5.4h0A4.28,4.28,0,0,1,.9,4.16h0A4.25,4.25,0,0,1,2.08,2.1h0a4.66,4.66,0,0,1,1.48-1,4.65,4.65,0,0,1,3.48,0A5,5,0,0,1,8.46,2L8.5,2l0,0,0,0L9.47,3l.53.53L10.53,3l.93-.93,0,0,0,0,0-.05A5,5,0,0,1,13,1.09a4.52,4.52,0,0,1,5,1h0A3.67,3.67,0,0,1,18.64,3Z"/></g></g></svg>