<svg xmlns="http://www.w3.org/2000/svg" viewBox="0 0 502.54 100"><g fill="#231f20"><path d="M27.27 0C12.23 0 0 12.23 0 27.27V100h9.09V27.27c0-10.04 8.14-18.18 18.18-18.18h448c10.04 0 18.18 8.14 18.18 18.18V100h9.09V27.27C502.54 12.23 490.3 0 475.27 0h-448Z"/><path d="M83.76 80.85c0 .71-.46.97-1.24.97h-6.74c-.78 0-1.03-.26-1.03-1.04V62.44c0-.84-.58-1.3-1.43-1.3H55.63c-.78 0-1.23.45-1.23 1.3v18.34c0 .78-.46 1.04-1.17 1.04h-6.87c-.65 0-.91-.26-.91-.97V35.28c0-.71.26-1.1.91-1.1h6.87c.71 0 1.17.39 1.17 1.1v17.63c0 .84.45 1.23 1.23 1.23h17.69c.84 0 1.43-.39 1.43-1.23V35.28c0-.71.26-1.1 1.03-1.1h6.74c.78 0 1.24.39 1.24 1.1v45.57ZM100.03 82.47c-4.99 0-7.58-4.02-7.58-7.45V46.69c0-.84.32-1.23 1.1-1.23h6.48c.65 0 1.1.39 1.1 1.23v27.36c0 .78.33 1.16 1.24 1.16h11.86c.78 0 1.3-.39 1.3-1.16V46.69c0-.84.33-1.23 1.1-1.23h6.48c.72 0 1.17.39 1.17 1.23v41.29c0 1.04-.33 2.01-.78 2.98l-4.41 7.2c-.38.65-.97 1.04-1.62 1.04h-.84c-.78 0-1.1-.46-1.1-1.17V79.75c0-.78-.46-1.1-1.17-.91l-12.45 3.5c-.58.13-1.29.13-1.88.13M140.41 82.4c-3.95 0-7.46-3.24-7.46-7.45V46.69c0-.84.32-1.23 1.1-1.23h6.55c.58 0 1.04.39 1.04 1.23v27.36c0 .78.39 1.1 1.29 1.1h11.87c.78 0 1.29-.33 1.29-1.1V46.69c0-.84.26-1.23 1.04-1.23h6.49c.71 0 1.17.39 1.17 1.23v34.16c0 .71-.46.97-1.17.97h-6.49c-.77 0-1.04-.26-1.04-1.04v-1.04c0-.84-.51-1.17-1.23-.91l-12.45 3.37c-.65.19-1.36.19-2.01.19M205.29 52.46v28.39c0 .71-.45.97-1.17.97h-6.48c-.78 0-1.03-.26-1.03-1.04V53.43c0-.84-.52-1.3-1.3-1.3h-11.86c-.91 0-1.3.45-1.3 1.3v27.35c0 .78-.45 1.04-1.04 1.04h-6.55c-.78 0-1.1-.26-1.1-.97V46.69c0-.84.33-1.23 1.1-1.23h6.55c.58 0 1.04.39 1.04 1.23v1.1c0 .71.33 1.04 1.3.78l12.38-3.37c.64-.13 1.23-.32 1.88-.32 4.27 0 7.58 3.57 7.58 7.58M235.88 74.04V53.49c0-.91-.38-1.36-1.29-1.36H222.6c-.91 0-1.23.45-1.23 1.36v20.55c0 .78.32 1.1 1.23 1.1h11.99c.91 0 1.29-.33 1.29-1.1m-23.21.91V58.62c0-3.5 1.5-6.16 4.61-7.84l6.87-4.02c1.43-.91 2.85-1.3 4.54-1.3h5.96c.84 0 1.23-.32 1.23-1.1V30.94c0-.71.32-1.23.97-1.23h6.61c.78 0 1.1.52 1.1 1.23v49.91c0 .71-.33.97-1.1.97h-6.61c-.65 0-.97-.26-.97-1.04v-1.04c0-.84-.38-1.17-1.23-.91l-12.51 3.37c-.71.19-1.3.19-1.95.19-3.37.13-7.52-2.98-7.52-7.45M275.16 74.04V53.49c0-.91-.46-1.36-1.3-1.36h-11.99c-.91 0-1.23.45-1.23 1.36v20.55c0 .78.32 1.1 1.23 1.1h11.99c.84 0 1.3-.33 1.3-1.1m-15.69 8.36c-4.08 0-7.52-3.3-7.52-7.45V58.62c0-3.5 1.49-6.16 4.53-7.84l6.94-4.02a7.965 7.965 0 0 1 4.47-1.3h14.84c.72 0 1.1.39 1.1 1.23v34.16c0 .71-.39.97-1.1.97h-6.61c-.71 0-.97-.26-.97-1.04v-1.04c0-.84-.46-1.17-1.3-.91l-12.44 3.37c-.72.19-1.3.19-1.95.19M301.21 80.85c0 .71-.46.97-1.1.97h-6.48c-.84 0-1.1-.26-1.1-.97V46.69c0-.84.26-1.23 1.1-1.23h6.48c.65 0 1.1.39 1.1 1.23v34.16Zm0-44.6c0 .78-.46 1.04-1.1 1.04h-6.48c-.84 0-1.1-.26-1.1-1.04v-5.31c0-.72.26-1.23 1.1-1.23h6.48c.65 0 1.1.52 1.1 1.23v5.31ZM319.39 72.48V47.91c0-3.63 1.56-6.42 4.73-8.3l7.59-4.21c1.36-.84 2.98-1.23 4.47-1.23h16.08c.78 0 1.17.39 1.17 1.17v4.73c0 .71-.38 1.04-1.17 1.04h-22.49c-.78 0-1.1.45-1.1 1.3v31.24c0 .84.32 1.23 1.1 1.23h23.14c.71 0 1.17.32 1.17.97 0 .71-.33 1.3-1.04 1.69l-5.58 3.11c-1.49.84-3.05 1.17-4.6 1.17h-14c-4.61 0-9.47-3.3-9.47-9.33M382.67 74.04V53.49c0-.91-.46-1.36-1.3-1.36h-11.99c-.91 0-1.23.45-1.23 1.36v20.55c0 .78.32 1.1 1.23 1.1h11.99c.84 0 1.3-.33 1.3-1.1m-15.69 8.36c-4.08 0-7.52-3.3-7.52-7.45V58.62c0-3.5 1.49-6.16 4.54-7.84l6.94-4.02a7.988 7.988 0 0 1 4.47-1.3h14.84c.71 0 1.1.39 1.1 1.23v34.16c0 .71-.39.97-1.1.97h-6.61c-.72 0-.97-.26-.97-1.04v-1.04c0-.84-.46-1.17-1.3-.91l-12.45 3.37c-.71.19-1.29.19-1.95.19M423.89 51.16c0 .65-.45.97-1.16.97h-12.78c-.84 0-1.17.45-1.17 1.29v27.35c0 .78-.52 1.04-1.16 1.04h-6.55c-.78 0-1.04-.26-1.04-.97V46.68c0-.84.26-1.23 1.04-1.23h6.55c.65 0 1.16.39 1.16 1.23v1.04c0 .71.33 1.04 1.17 1.04.2 0 .46 0 .72-.13l3.76-2.47a9.39 9.39 0 0 1 4.47-1.1h3.83c.71 0 1.16.39 1.16 1.1v4.99ZM448.4 74.04V53.49c0-.91-.39-1.36-1.3-1.36h-11.99c-.91 0-1.23.45-1.23 1.36v20.55c0 .78.32 1.1 1.23 1.1h11.99c.91 0 1.3-.33 1.3-1.1m-23.21.91V58.62c0-3.5 1.49-6.16 4.6-7.84l6.87-4.02c1.43-.91 2.85-1.3 4.54-1.3h5.96c.85 0 1.24-.32 1.24-1.1V30.94c0-.71.32-1.23.97-1.23h6.61c.78 0 1.1.52 1.1 1.23v49.91c0 .71-.32.97-1.1.97h-6.61c-.65 0-.97-.26-.97-1.04v-1.04c0-.84-.39-1.17-1.24-.91l-12.51 3.37c-.71.19-1.3.19-1.94.19-3.37.13-7.52-2.98-7.52-7.45"/></g></svg>