<svg xmlns="http://www.w3.org/2000/svg" viewBox="0 0 36.5 50.11"><defs><style>.cls-1{fill:#fff;}.cls-1,.cls-2,.cls-3{stroke:#b19470;stroke-linecap:round;stroke-linejoin:round;stroke-width:0.73px;}.cls-2{fill:none;}.cls-4,.cls-5,.cls-6{fill:#b19470;}.cls-5{font-size:7px;}.cls-5,.cls-6{font-family:YDIYGO330;}.cls-6{font-size:4.33px;}</style></defs><g id="Layer_2" data-name="Layer 2"><g id="Layer_1-2" data-name="Layer 1"><circle class="cls-1" cx="18.25" cy="23.01" r="13.9"/><line class="cls-2" x1="9.53" y1="29.44" x2="15" y2="20.52"/><line class="cls-3" x1="18.59" y1="29.44" x2="13.12" y2="20.52"/><polygon class="cls-4" points="27.21 29.44 22.51 21.77 13.88 21.77 18.59 29.44 27.21 29.44"/><line class="cls-2" x1="6" y1="29.53" x2="30.5" y2="29.53"/><polyline class="cls-4" points="14.6 29.53 13.93 26.44 13.16 29.53"/><circle class="cls-2" cx="23.23" cy="17.06" r="1.58"/><line class="cls-2" x1="11.91" y1="10.89" x2="11.91" y2="35.13"/><text class="cls-5" transform="translate(9.42 9.63) rotate(-25.01)">H</text><text class="cls-5" transform="translate(13.73 7.64) rotate(-8.04)">A</text><text class="cls-5" transform="translate(18.36 6.99) rotate(8.84)">R</text><text class="cls-5" transform="translate(22.71 7.62) rotate(24.48)">U</text><text class="cls-6" transform="translate(3.55 33.91) rotate(49.02)">A</text><text class="cls-6" transform="translate(5.52 36.17) rotate(39.58)">U</text><text class="cls-6" transform="translate(7.96 38.14) rotate(30.31)">T</text><text class="cls-6" transform="translate(10.14 39.44) rotate(21.29)">O</text><text class="cls-6" transform="translate(13.3 40.59) rotate(13.32)"> </text><text class="cls-6" transform="matrix(1, 0.1, -0.1, 1, 14.97, 41.03)">C</text><text class="cls-6" transform="translate(18.13 41.32) rotate(-4.07)">A</text><text class="cls-6" transform="matrix(0.97, -0.26, 0.26, 0.97, 21.31, 41.09)">M</text><text class="cls-6" transform="translate(24.9 40.06) rotate(-25.51)">P</text><text class="cls-6" transform="translate(27.39 38.81) rotate(-31.57)">I</text><text class="cls-6" transform="translate(28.38 38.26) rotate(-38.18)">N</text><text class="cls-6" transform="translate(30.92 36.24) rotate(-48.63)">G</text></g></g></svg>