<svg xmlns="http://www.w3.org/2000/svg" viewBox="0 0 51.55 27.62"><defs><style>.cls-1,.cls-2{fill:none;stroke:#b19470;stroke-linecap:round;stroke-linejoin:round;}.cls-1{stroke-width:0.5px;}.cls-2{stroke-width:0.25px;}.cls-3,.cls-4{fill:#b19470;}.cls-4{font-size:11.27px;font-family:YDIYGO330;}</style></defs><g id="Layer_2" data-name="Layer 2"><g id="Layer_1-2" data-name="Layer 1"><rect class="cls-1" x="3.97" y="2.04" width="3.1" height="8" rx="1.54"/><rect class="cls-1" x="13.13" y="5.03" width="1.92" height="4.5" rx="0.44" transform="translate(6.82 21.37) rotate(-90)"/><rect class="cls-1" x="18.62" y="6.05" width="3.1" height="5.72" rx="0.97"/><line class="cls-1" x1="8.22" y1="12.66" x2="27.25" y2="12.66"/><path class="cls-1" d="M24,6.67a3,3,0,0,0-3-3h-8.3a3,3,0,0,0-3,3.05v6H24Z"/><line class="cls-1" x1="25.61" y1="11.58" x2="25.61" y2="14.4"/><line class="cls-1" x1="0.47" y1="14.4" x2="30.87" y2="14.4"/><circle class="cls-1" cx="20.17" cy="8.03" r="0.66"/><line class="cls-1" x1="14.09" y1="6.31" x2="14.09" y2="8.24"/><circle class="cls-1" cx="12.85" cy="12.66" r="1.65"/><circle class="cls-1" cx="12.85" cy="12.66" r="1.65"/><path class="cls-1" d="M10.6,12.66a2.25,2.25,0,0,1,4.5,0"/><path class="cls-1" d="M25.6,1.61a.86.86,0,0,0-.85.86v0a.85.85,0,0,0,.85.85h3.73a.86.86,0,0,0,.86-.85v0a.87.87,0,0,0-.86-.86H28.4a1.36,1.36,0,1,0-2.72,0H25.6"/><line class="cls-1" x1="5.53" y1="5.01" x2="5.53" y2="14.4"/><line class="cls-1" x1="4.63" y1="7.74" x2="5.53" y2="8.54"/><line class="cls-1" x1="6.44" y1="5.8" x2="5.53" y2="6.72"/><line class="cls-2" x1="33.01" y1="14.54" x2="37.43" y2="7.33"/><line class="cls-2" x1="40.34" y1="14.54" x2="35.91" y2="7.33"/><polygon class="cls-3" points="47.31 14.54 43.51 8.34 36.53 8.34 40.34 14.54 47.31 14.54"/><line class="cls-1" x1="28.82" y1="14.42" x2="51.3" y2="14.42"/><polyline class="cls-3" points="37.11 14.43 36.56 11.93 35.95 14.43"/><text class="cls-4" transform="translate(0 24.45)">HARU</text><path class="cls-3" d="M33,20.75l-.35-.86H30.9l-.35.86h-.46l1.4-3.45H32l1.41,3.45Zm-1.21-3-.7,1.72h1.39Z"/><path class="cls-3" d="M36.13,19.69a1.16,1.16,0,0,1-.34.8,1.58,1.58,0,0,1-2,0,1.16,1.16,0,0,1-.34-.8V17.3h.44v2.34a1,1,0,0,0,.19.52,1,1,0,0,0,1.38,0,.92.92,0,0,0,.2-.52V17.3h.44Z"/><path class="cls-3" d="M38,17.7v3.05h-.45V17.7H36.42v-.4h2.75v.4Z"/><path class="cls-3" d="M41.89,17.71A1.9,1.9,0,0,1,42.32,19a2,2,0,0,1-.43,1.33,1.48,1.48,0,0,1-1.17.49,1.45,1.45,0,0,1-1.16-.49A2,2,0,0,1,39.13,19a2,2,0,0,1,.43-1.31,1.45,1.45,0,0,1,1.16-.49A1.48,1.48,0,0,1,41.89,17.71Zm-.35,2.34a1.72,1.72,0,0,0,.29-1,1.69,1.69,0,0,0-.29-1,1.06,1.06,0,0,0-1.63,0,1.69,1.69,0,0,0-.29,1,1.72,1.72,0,0,0,.29,1,1,1,0,0,0,1.63,0Z"/><path class="cls-3" d="M32.86,22.73a1.44,1.44,0,0,0-.31-.46.91.91,0,0,0-.68-.22,1,1,0,0,0-.81.37,1.67,1.67,0,0,0-.29,1,1.73,1.73,0,0,0,.29,1,.94.94,0,0,0,.81.39.91.91,0,0,0,.68-.25,1.35,1.35,0,0,0,.31-.54h.49a2,2,0,0,1-.45.79,1.32,1.32,0,0,1-1,.4,1.45,1.45,0,0,1-1.16-.5,2,2,0,0,1-.43-1.33,1.92,1.92,0,0,1,.43-1.31,1.47,1.47,0,0,1,1.16-.49,1.39,1.39,0,0,1,1.05.38,1.62,1.62,0,0,1,.43.71Z"/><path class="cls-3" d="M36.23,25.18l-.35-.86H34.16l-.35.85h-.46l1.4-3.44h.54l1.41,3.45Zm-1.21-3-.69,1.72h1.38Z"/><path class="cls-3" d="M39.74,25.15V22.68h-.05l-.89,2.48h-.54l-.88-2.49-.05,0v2.47h-.39v-3.4h.49l1.11,3,1.09-3h.5v3.4Z"/><path class="cls-3" d="M43,22a.92.92,0,0,1,.34.75,1,1,0,0,1-.34.76,1.24,1.24,0,0,1-.84.3h-1v1.35h-.44V21.72h1.4A1.27,1.27,0,0,1,43,22Zm-.35,1.25a.59.59,0,0,0,.21-.5.54.54,0,0,0-.21-.48.93.93,0,0,0-.49-.14h-1V23.4h1A.86.86,0,0,0,42.67,23.25Z"/><path class="cls-3" d="M43.72,25.16V21.73h.44v3.43Z"/><path class="cls-3" d="M46.94,25.18l-1.69-2.73h0v2.7h-.45V21.72h.53L47,24.45h0V21.73h.45v3.45Z"/><path class="cls-3" d="M50.61,25.18v-.46a1.26,1.26,0,0,1-.43.38,1.28,1.28,0,0,1-.64.17,1.45,1.45,0,0,1-1.17-.5A2,2,0,0,1,48,23.44a2,2,0,0,1,.42-1.31,1.48,1.48,0,0,1,1.17-.49,1.39,1.39,0,0,1,1.05.38,1.6,1.6,0,0,1,.43.72h-.5a1.4,1.4,0,0,0-.3-.46.93.93,0,0,0-.68-.22,1,1,0,0,0-.82.38,1.66,1.66,0,0,0-.28,1,1.74,1.74,0,0,0,.28,1,.93.93,0,0,0,.82.4,1,1,0,0,0,.76-.32,1.14,1.14,0,0,0,.3-.75h-1v-.38h1.48v1.76Z"/></g></g></svg>