<svg xmlns="http://www.w3.org/2000/svg" viewBox="0 0 44.34 49.33"><defs><style>.cls-1,.cls-2{fill:#fff;}.cls-2,.cls-3,.cls-4{stroke:#b19470;stroke-linecap:round;stroke-linejoin:round;stroke-width:0.73px;}.cls-3{fill:none;}.cls-5,.cls-6,.cls-7{fill:#b19470;}.cls-6{font-size:7px;}.cls-6,.cls-7{font-family:YDIYGO330;}.cls-7{font-size:6px;}</style></defs><g id="Layer_2" data-name="Layer 2"><g id="Layer_1-2" data-name="Layer 1"><circle class="cls-1" cx="21.48" cy="23.01" r="21.48"/><circle class="cls-2" cx="21.48" cy="23.01" r="13.9"/><line class="cls-3" x1="12.76" y1="29.44" x2="18.23" y2="20.52"/><line class="cls-4" x1="21.82" y1="29.44" x2="16.35" y2="20.52"/><polygon class="cls-5" points="30.45 29.45 25.74 21.77 17.11 21.77 21.82 29.45 30.45 29.45"/><line class="cls-3" x1="9.23" y1="29.53" x2="33.73" y2="29.53"/><polyline class="cls-5" points="17.84 29.53 17.16 26.45 16.39 29.53"/><circle class="cls-3" cx="26.47" cy="17.06" r="1.58"/><line class="cls-3" x1="15.15" y1="10.9" x2="15.15" y2="35.13"/><text class="cls-6" transform="translate(12.66 9.64) rotate(-25.01)">H</text><text class="cls-6" transform="translate(16.96 7.64) rotate(-8.03)">A</text><text class="cls-6" transform="translate(21.59 6.99) rotate(8.84)">R</text><text class="cls-6" transform="matrix(0.91, 0.41, -0.41, 0.91, 25.95, 7.62)">U</text><text class="cls-7" transform="translate(2.54 28.96) rotate(66.89)">A</text><text class="cls-7" transform="translate(4.29 32.96) rotate(54.21)">U</text><text class="cls-7" transform="matrix(0.75, 0.67, -0.67, 0.75, 7.02, 36.58)">T</text><text class="cls-7" transform="translate(9.79 39.08) rotate(29.75)">O</text><text class="cls-7" transform="matrix(0.94, 0.33, -0.33, 0.94, 14.03, 41.34)"> </text><text class="cls-7" transform="translate(16.46 42.24) rotate(8.56)">C</text><text class="cls-7" transform="translate(21.05 42.87) rotate(-4.57)">A</text><text class="cls-7" transform="translate(25.69 42.46) rotate(-19.04)">M</text><text class="cls-7" transform="translate(30.74 40.56) rotate(-33.05)">P</text><text class="cls-7" transform="matrix(0.75, -0.66, 0.66, 0.75, 34.03, 38.29)">I</text><text class="cls-7" transform="translate(35.37 37.22) rotate(-50.33)">N</text><text class="cls-7" transform="translate(38.35 33.51) rotate(-64.36)">G</text></g></g></svg>