<svg xmlns="http://www.w3.org/2000/svg" viewBox="0 0 130 130"><defs><style>.cls-1{fill:#b19470;}.cls-2,.cls-4{fill:none;stroke:#eee;stroke-linecap:round;stroke-linejoin:round;}.cls-2{stroke-width:2.42px;}.cls-3{fill:#eee;}.cls-4{stroke-width:2.4px;}.cls-5{fill:#fff;}</style></defs><g id="Layer_2" data-name="Layer 2"><g id="Layer_1-2" data-name="Layer 1"><circle class="cls-1" cx="65" cy="65" r="65"/><line class="cls-2" x1="36.59" y1="58.65" x2="54.96" y2="29.15"/><line class="cls-2" x1="67" y1="58.65" x2="48.64" y2="29.15"/><polygon class="cls-3" points="95.97 58.65 80.17 33.27 51.21 33.27 67 58.65 95.97 58.65"/><line class="cls-2" x1="26.19" y1="58.93" x2="105.09" y2="58.93"/><polyline class="cls-3" points="53.63 58.93 51.35 48.73 48.78 58.93"/><ellipse class="cls-4" cx="82.59" cy="17.71" rx="5.32" ry="5.24"/><line class="cls-4" x1="44.6" y1="12.48" x2="44.6" y2="76.81"/><path class="cls-5" d="M28.88,88.23a8.46,8.46,0,0,1-2.47,2.21,9.72,9.72,0,0,1-3,1.2.7.7,0,0,1-.63-.13.6.6,0,0,1-.24-.51.67.67,0,0,1,.31-.5,6.66,6.66,0,0,0,1.46-1.29,6.59,6.59,0,0,0,1-1.52,10.29,10.29,0,0,0,.53-1.48,6.73,6.73,0,0,0,.22-1.37c0-.58.31-.87.85-.87h2.44q.91,0,.84.84a6.5,6.5,0,0,1-.8,2.64,10.25,10.25,0,0,1,2.32.72,2.74,2.74,0,0,1,1.44,1.23,1.37,1.37,0,0,1,0,1.25,1.73,1.73,0,0,1-.87.8,1.68,1.68,0,0,1-1.17,0,1.35,1.35,0,0,1-.86-.85A7.36,7.36,0,0,0,28.88,88.23Zm.74,7.86c-.18,0-.26.09-.26.27v.48a.35.35,0,0,0,.08.26.38.38,0,0,0,.27.07h7.62a.6.6,0,0,1,.57.35.74.74,0,0,1,0,.68.6.6,0,0,1-.57.33H26.27a1.84,1.84,0,0,1-1.33-.39A1.67,1.67,0,0,1,24.56,97V95.77a.92.92,0,0,1,1-1h6.88c.2,0,.3-.08.3-.23V94a.33.33,0,0,0-.08-.26.38.38,0,0,0-.27-.07H25.26a.58.58,0,0,1-.56-.35.69.69,0,0,1,0-.68.58.58,0,0,1,.56-.33H36.34a1.31,1.31,0,0,1,1,.28,1.32,1.32,0,0,1,.27.93v1.56a1,1,0,0,1-.27.78,1.41,1.41,0,0,1-1,.26Zm4.61-11.92a.87.87,0,0,1,.65-.2h1.87a.87.87,0,0,1,.65.2,1,1,0,0,1,.18.64V90.6a1,1,0,0,1-.39.87,1.54,1.54,0,0,1-1,.3h-.8a1.56,1.56,0,0,1-1-.3,1,1,0,0,1-.4-.87V84.81A1,1,0,0,1,34.23,84.17Z"/><path class="cls-5" d="M38.39,97.53a.59.59,0,0,1,0-.87A13.19,13.19,0,0,0,41,91.57,25.3,25.3,0,0,0,41.76,85a.76.76,0,0,1,.85-.87h2.33a.87.87,0,0,1,.65.2,1,1,0,0,1,.19.64,16.76,16.76,0,0,1-1,5.74,8.74,8.74,0,0,1,2.74,2A4.66,4.66,0,0,1,49,95.61a1.44,1.44,0,0,1-.44,1.2,2,2,0,0,1-2.29.4,1,1,0,0,1-.6-.84A16.14,16.14,0,0,0,45.23,94a13,13,0,0,0-.8-2.45,14.37,14.37,0,0,1-2.2,3.67,9.41,9.41,0,0,1-2.92,2.42A.68.68,0,0,1,38.39,97.53ZM49.83,84.25a.87.87,0,0,1,.65-.2h1.87a.87.87,0,0,1,.65.2,1,1,0,0,1,.18.64V97a1.16,1.16,0,0,1-.48,1,1.67,1.67,0,0,1-1.05.38h-.47a1.67,1.67,0,0,1-1-.38,1.16,1.16,0,0,1-.48-1V84.89A1,1,0,0,1,49.83,84.25Z"/><path class="cls-5" d="M54.57,85.15a.74.74,0,0,1,0-.68.59.59,0,0,1,.57-.34H62a2.06,2.06,0,0,1,1.23.28,1.39,1.39,0,0,1,.34,1.08,7.35,7.35,0,0,1-.49,2.81,5.44,5.44,0,0,1-1.26,2,6.3,6.3,0,0,1-2,1.22,11.06,11.06,0,0,1-2.31.7,20.21,20.21,0,0,1-2.57.28.67.67,0,0,1-.62-.27.63.63,0,0,1-.09-.62.65.65,0,0,1,.54-.42,6,6,0,0,0,3.65-1.79,5,5,0,0,0,1.08-3.3.66.66,0,0,0-.1-.44.59.59,0,0,0-.44-.12h-3.9A.58.58,0,0,1,54.57,85.15Zm1.17,9a.91.91,0,0,1,.19-.63.83.83,0,0,1,.65-.2h2.57a.83.83,0,0,1,.65.2.91.91,0,0,1,.18.63v2.25a.81.81,0,0,0,.15.57.8.8,0,0,0,.57.15h7.38a.59.59,0,0,1,.57.35.74.74,0,0,1,0,.68.58.58,0,0,1-.57.33H57.92A2.39,2.39,0,0,1,56.23,98a1.84,1.84,0,0,1-.49-1.38Zm14.43-5.5a.92.92,0,0,1,0,.76.58.58,0,0,1-.57.39h-1v4a1,1,0,0,1-.39.87,1.57,1.57,0,0,1-1,.29h-.8a1.58,1.58,0,0,1-1-.29,1,1,0,0,1-.4-.87v-9a.91.91,0,0,1,.19-.64.84.84,0,0,1,.64-.2h1.88a.86.86,0,0,1,.64.2.91.91,0,0,1,.19.64v3.44h1A.57.57,0,0,1,70.17,88.62Z"/><path class="cls-5" d="M83.65,94.55H82.46q-.73,3.32-3.37,3.31a3,3,0,0,1-2.84-1.73,12.23,12.23,0,0,1-.87-5.26,12.23,12.23,0,0,1,.87-5.26,3,3,0,0,1,2.84-1.73q2.64,0,3.37,3.31h1.19v-2.3a1,1,0,0,1,.18-.64.87.87,0,0,1,.65-.2h1.46a.86.86,0,0,1,.64.2.91.91,0,0,1,.19.64v12.3a1,1,0,0,1-.39.85,1.43,1.43,0,0,1-.94.32H85A1.45,1.45,0,0,1,84,98a1.07,1.07,0,0,1-.38-.85Zm-4.53,2.11q.51,0,.51-.78v-10q0-.78-.54-.78c-.35,0-.53.26-.53.78v10C78.56,96.4,78.75,96.66,79.12,96.66Zm3.57-3.47h1V88.55h-1c.07.82.11,1.6.11,2.32S82.76,92.39,82.69,93.19Zm4.51-8.3a1,1,0,0,1,.18-.64.89.89,0,0,1,.65-.2h1.46a.89.89,0,0,1,.65.2,1,1,0,0,1,.18.64v12.3a1.07,1.07,0,0,1-.38.85,1.47,1.47,0,0,1-1,.32h-.46a1.45,1.45,0,0,1-1-.32,1.07,1.07,0,0,1-.38-.85Z"/><path class="cls-5" d="M92.69,84.75a7.14,7.14,0,0,1,7.55,0,4.89,4.89,0,0,1,0,6.42,7.14,7.14,0,0,1-7.55,0,4.89,4.89,0,0,1,0-6.42Zm8.9,9.93a.63.63,0,0,0-.5-.15H93.33a.58.58,0,0,1-.57-.34.74.74,0,0,1,0-.68.59.59,0,0,1,.57-.34h10.72a2.2,2.2,0,0,1,1.41.32,1.64,1.64,0,0,1,.35,1.2v2.42a1.16,1.16,0,0,1-.48,1,1.68,1.68,0,0,1-1.06.38h-1a1.68,1.68,0,0,1-1.06-.38,1.16,1.16,0,0,1-.48-1V95.25A.94.94,0,0,0,101.59,94.68ZM95.7,90.89a1.72,1.72,0,0,0,.8.19,1.44,1.44,0,0,0,.74-.2.62.62,0,0,0,.33-.55V85.61a.62.62,0,0,0-.34-.56,1.41,1.41,0,0,0-.77-.21,1.54,1.54,0,0,0-.76.2.62.62,0,0,0-.34.57v4.72A.61.61,0,0,0,95.7,90.89Zm11.67-4.8a.92.92,0,0,1,0,.76.58.58,0,0,1-.57.39h-1v1.58h1a.58.58,0,0,1,.57.38.92.92,0,0,1,0,.76.58.58,0,0,1-.57.38h-1v1a1,1,0,0,1-.39.88,1.52,1.52,0,0,1-1,.31h-.72a1.53,1.53,0,0,1-1-.31,1,1,0,0,1-.4-.88V84.81a.91.91,0,0,1,.19-.64.84.84,0,0,1,.64-.2H105a.86.86,0,0,1,.64.2.91.91,0,0,1,.19.64v.91h1A.57.57,0,0,1,107.37,86.09Z"/><path class="cls-5" d="M37.36,103.61a1,1,0,0,1,.18.64v4.51h2.58v-4.51a1,1,0,0,1,.18-.64.89.89,0,0,1,.65-.2h1.71a.87.87,0,0,1,.65.2,1,1,0,0,1,.19.64v10.68a2.27,2.27,0,0,1-.56,1.53,2.21,2.21,0,0,1-1.78.65H36.5a2.23,2.23,0,0,1-1.78-.65,2.27,2.27,0,0,1-.55-1.53V104.25a1,1,0,0,1,.18-.64.87.87,0,0,1,.65-.2h1.71A.87.87,0,0,1,37.36,103.61Zm2,12.14a.65.65,0,0,0,.8-.8v-4.83H37.54V115a1,1,0,0,0,.16.63.91.91,0,0,0,.64.17Zm10.25-6.54a.92.92,0,0,1,0,.76.58.58,0,0,1-.57.39H48v5.87a1.16,1.16,0,0,1-.48,1,1.68,1.68,0,0,1-1.06.38h-.38a1.68,1.68,0,0,1-1.06-.38,1.16,1.16,0,0,1-.48-1V104.09a.91.91,0,0,1,.19-.64.84.84,0,0,1,.64-.2h1.8a.86.86,0,0,1,.64.2.91.91,0,0,1,.19.64v4.75h1A.57.57,0,0,1,49.57,109.21Z"/><path class="cls-5" d="M55.51,115.75v-1.58a.91.91,0,0,1,.19-.64.84.84,0,0,1,.64-.2h2.6a.84.84,0,0,1,.64.2.91.91,0,0,1,.19.64v1.58h4.78a.59.59,0,0,1,.57.34.74.74,0,0,1,0,.68.58.58,0,0,1-.57.34H50.73a.58.58,0,0,1-.57-.34.74.74,0,0,1,0-.68.59.59,0,0,1,.57-.34Zm.66-7.07a.24.24,0,0,0-.26.27V111a.38.38,0,0,0,.08.27.41.41,0,0,0,.27.07h7.6a.58.58,0,0,1,.57.34.74.74,0,0,1,0,.68.58.58,0,0,1-.57.34H53c-1.35,0-2-.63-2-1.9v-2.13a1.26,1.26,0,0,1,1.36-1.36H58.9a.27.27,0,0,0,.31-.31v-1.9a.33.33,0,0,0-.08-.26.41.41,0,0,0-.27-.08H51.53a.58.58,0,0,1-.57-.34.74.74,0,0,1,0-.68.59.59,0,0,1,.57-.34H62.6a1.63,1.63,0,0,1,1.19.38,1.59,1.59,0,0,1,.38,1.16v2.32c0,.94-.53,1.41-1.57,1.41Z"/><path class="cls-5" d="M65.81,104.43a.74.74,0,0,1,0-.68.59.59,0,0,1,.57-.34h6.54a1.88,1.88,0,0,1,1.28.36,1.55,1.55,0,0,1,.4,1.23v3.25A8.16,8.16,0,0,1,72.39,114a10.06,10.06,0,0,1-5.6,3,.74.74,0,0,1-.67-.16.63.63,0,0,1,.21-1.09,7.64,7.64,0,0,0,2.08-1.36,6.71,6.71,0,0,0,1.41-1.83,9.49,9.49,0,0,0,.76-2.06,9.66,9.66,0,0,0,.24-2.16v-3a.62.62,0,0,0-.13-.45.71.71,0,0,0-.47-.13H66.38A.58.58,0,0,1,65.81,104.43Zm15.44,4.78a.92.92,0,0,1,0,.76.58.58,0,0,1-.57.39h-1v5.87a1.16,1.16,0,0,1-.48,1,1.68,1.68,0,0,1-1.06.38h-.46a1.68,1.68,0,0,1-1.06-.38,1.16,1.16,0,0,1-.48-1V104.09a.91.91,0,0,1,.19-.64.84.84,0,0,1,.64-.2h1.88a.84.84,0,0,1,.64.2.91.91,0,0,1,.19.64v4.75h1A.57.57,0,0,1,81.25,109.21Z"/><path class="cls-5" d="M81.49,104.43a.74.74,0,0,1,0-.68.59.59,0,0,1,.57-.34h6.7a1.88,1.88,0,0,1,1.28.36,1.55,1.55,0,0,1,.4,1.23v3.25a8.33,8.33,0,0,1-2.35,5.84A10.1,10.1,0,0,1,85.56,116a11.56,11.56,0,0,1-3.09,1.08.74.74,0,0,1-.67-.16A.63.63,0,0,1,82,115.8a7.28,7.28,0,0,0,3.49-3.06,8.64,8.64,0,0,0,1.16-4.35v-3a.62.62,0,0,0-.13-.45.71.71,0,0,0-.47-.13h-4A.58.58,0,0,1,81.49,104.43Zm10.85-1a.84.84,0,0,1,.64-.2h1.88a.84.84,0,0,1,.64.2.91.91,0,0,1,.19.64v12.14a1.16,1.16,0,0,1-.48,1,1.68,1.68,0,0,1-1.06.38h-.46a1.68,1.68,0,0,1-1.06-.38,1.16,1.16,0,0,1-.48-1V104.09A.91.91,0,0,1,92.34,103.45Z"/></g></g></svg>